PathFileType	3	(X/Y/Z)	RCH0000002 BBF 11.c3d
DataRate	CameraRate	NumFrames	NumMarkers	Units	OrigDataRate	OrigDataStartFrame	OrigNumFrames
100.0	100.0	10	23	mm	100.0	107	502
Frame#	Time	T2			T10			MAN			LASI			RASI			LPSI			RPSI			LPAT			LKNE			LANK			LMED			LTOE			RPAT			RKNE			RANK			RMED			RHEE			RTOE			LHEE			RTHI			LTHI			RTIB			LTIB			
		X1	Y1	Z1	X2	Y2	Z2	X3	Y3	Z3	X4	Y4	Z4	X5	Y5	Z5	X6	Y6	Z6	X7	Y7	Z7	X8	Y8	Z8	X9	Y9	Z9	X10	Y10	Z10	X11	Y11	Z11	X12	Y12	Z12	X13	Y13	Z13	X14	Y14	Z14	X15	Y15	Z15	X16	Y16	Z16	X17	Y17	Z17	X18	Y18	Z18	X19	Y19	Z19	X20	Y20	Z20	X21	Y21	Z21	X22	Y22	Z22	X23	Y23	Z23	

107	1.060	-1791.60426	-44.54131	1000.85484	-1799.61650	-57.73946	815.96540	-1666.90208	-13.59247	962.13798	-1731.19698	17.78416	654.15113	-1701.55519	-153.86173	682.18881	-1827.45784	-42.13663	719.41280	-1814.54679	-110.10376	732.97250	-1644.57927	-1.25075	414.31487	-1699.72602	42.26584	369.80411	-1828.21495	28.05578	134.77770	-1800.92070	-38.34242	140.81148	-1775.46955	7.05417	112.47163	-1765.65879	-109.39693	392.84572	-1801.23110	-173.25174	365.18096	-1870.89988	-176.70963	96.78493	-1898.28395	-114.90097	113.92156	-1920.10592	-163.09228	135.39238	-1842.29903	-127.03506	81.01359	-1842.84687	-21.00096	170.07812	-1743.38257	-234.91966	466.29993	-1752.24169	103.26098	487.92223	-1820.30240	-240.31877	247.25475	-1767.70953	96.66592	277.08366	
108	1.070	-1780.08212	-44.40740	1001.02926	-1789.53467	-56.77711	815.76011	-1655.74505	-12.79320	961.30092	-1717.91086	17.59344	653.95145	-1692.11309	-154.60314	682.44927	-1816.24015	-39.95021	717.83918	-1804.63113	-108.07854	731.90165	-1624.90424	-3.09410	418.31098	-1677.28988	41.31929	371.91418	-1794.92335	29.53455	131.52636	-1769.23016	-37.26208	138.53205	-1741.62539	7.51578	111.62875	-1760.93637	-110.96450	392.41968	-1797.65753	-174.47585	365.82831	-1869.46481	-176.76014	97.61755	-1896.12499	-114.79763	115.24518	-1918.13140	-162.85838	136.87904	-1840.71510	-127.17569	81.18128	-1812.11714	-19.10609	165.94751	-1738.55434	-235.94943	466.36101	-1732.93198	103.30367	488.25711	-1818.48801	-241.25384	247.73253	-1739.83289	97.03710	276.43138	
109	1.080	-1768.45911	-44.10624	1000.55594	-1779.33501	-55.61994	814.91871	-1644.43377	-11.99088	959.80214	-1704.39698	17.32899	653.08586	-1682.64719	-155.36442	682.20965	-1804.86408	-37.63123	715.58998	-1794.64422	-105.90743	730.22158	-1605.88097	-5.52896	421.40643	-1655.28099	40.08885	373.35678	-1761.38394	31.42958	127.87151	-1737.59426	-35.85090	135.67795	-1707.75606	8.23231	110.37336	-1755.58212	-112.26717	391.63988	-1793.49698	-175.41662	366.14540	-1868.12438	-176.80005	98.33091	-1894.00583	-114.68045	116.45750	-1916.14677	-162.58456	138.32800	-1839.20972	-127.32071	81.23992	-1781.30799	-16.75653	161.18879	-1733.43850	-236.83319	466.14152	-1713.35041	103.14288	488.09490	-1816.31948	-241.98760	248.00246	-1711.87667	97.43839	275.32189	
110	1.090	-1756.74754	-43.56185	999.44519	-1768.94586	-54.27479	813.46330	-1632.96188	-11.16059	957.69715	-1690.62470	16.97324	651.59277	-1673.08130	-156.15285	681.48693	-1793.25290	-35.22866	712.74174	-1784.49404	-103.63789	727.99014	-1587.56343	-8.51511	423.52671	-1633.82628	38.57291	374.08314	-1727.88774	33.60613	123.83441	-1706.24599	-34.21823	132.25141	-1674.14858	9.11322	108.68839	-1749.63129	-113.31111	390.49815	-1788.76466	-176.08805	366.12667	-1866.90683	-176.80338	98.94004	-1891.93951	-114.52073	117.56170	-1914.18008	-162.23301	139.74621	-1837.80807	-127.45103	81.19407	-1750.64813	-14.09593	155.83467	-1727.98247	-237.57388	465.61995	-1693.59858	102.74272	487.44946	-1813.85501	-242.52667	248.06874	-1684.08453	97.79379	273.75233	
111	1.100	-1744.96016	-42.71395	997.72200	-1758.29505	-52.76232	811.42855	-1621.32662	-10.28064	955.05820	-1676.57380	16.52035	649.52903	-1663.33457	-156.96788	680.29867	-1781.33731	-32.79468	709.38491	-1774.08909	-101.32231	725.27296	-1569.97699	-11.98147	424.61843	-1613.03496	36.78413	374.05221	-1694.79617	35.91079	119.44960	-1675.48428	-32.48940	128.28610	-1641.15437	10.04880	106.56792	-1743.10037	-114.11727	388.98629	-1783.46265	-176.51109	365.76699	-1865.80622	-176.75609	99.46487	-1889.91104	-114.30298	118.56914	-1912.22272	-161.78258	141.14715	-1836.51217	-127.55618	81.04893	-1720.43011	-11.28217	149.95571	-1722.13076	-238.17772	464.77906	-1673.79946	102.08014	486.32260	-1811.12492	-242.88526	247.94187	-1656.71707	98.02866	271.72083	
112	1.110	-1733.10912	-41.52229	995.42633	-1747.31455	-51.11610	808.86174	-1609.52876	-9.33458	951.97144	-1662.23773	15.97653	646.96830	-1653.32687	-157.80193	678.66294	-1769.06200	-30.38249	705.62130	-1763.34565	-99.01618	722.14178	-1553.11914	-15.83188	424.65724	-1592.99345	34.74968	373.23876	-1662.53421	38.18718	114.76607	-1645.66864	-30.79245	123.84685	-1609.18019	10.92493	104.02117	-1735.97819	-114.71889	387.09381	-1777.57270	-176.71149	365.05856	-1864.77636	-176.65798	99.92730	-1887.87233	-114.02696	119.49690	-1910.22177	-161.23217	142.54875	-1835.29713	-127.63539	80.80807	-1691.00713	-8.47322	143.65893	-1715.82562	-238.65431	463.60666	-1654.08683	101.14915	484.70949	-1808.11867	-243.08369	247.63500	-1630.04380	98.07697	269.23340	
113	1.120	-1721.20507	-39.96936	992.61348	-1735.94552	-49.38118	805.82333	-1597.57259	-8.31295	948.53405	-1647.62658	15.35970	643.99985	-1642.98453	-158.64127	676.59931	-1756.39140	-28.04477	701.56239	-1752.19485	-96.77656	718.67358	-1536.96447	-19.95145	423.65596	-1573.76363	32.51183	371.64317	-1631.57409	40.29309	109.84854	-1617.20410	-29.24346	119.02780	-1578.67053	11.63928	101.07650	-1728.22226	-115.15591	384.80703	-1771.05208	-176.71595	363.98903	-1863.72938	-176.52097	100.34914	-1885.74045	-113.70583	120.36518	-1908.07733	-160.59898	143.97119	-1834.11000	-127.69625	80.47224	-1662.78023	-5.81198	137.08406	-1709.00725	-239.01456	462.09578	-1634.59484	99.96463	482.60910	-1804.77777	-243.14506	247.16050	-1604.33465	97.88929	266.31150	
114	1.130	-1709.25667	-38.06167	989.35454	-1724.14301	-47.61212	802.38787	-1585.46586	-7.21468	944.85153	-1632.76955	14.69860	640.72758	-1632.24570	-159.46668	674.13080	-1743.31424	-25.83267	697.32796	-1740.58848	-94.66064	714.95052	-1521.47335	-24.21221	421.67131	-1555.38499	30.12872	369.30105	-1602.40907	42.11714	104.77841	-1590.51655	-27.93203	113.94923	-1550.08153	12.11664	97.78482	-1719.76101	-115.46769	382.11074	-1763.83375	-176.54746	362.54137	-1862.53855	-176.36452	100.75121	-1883.39931	-113.36113	121.19489	-1905.64528	-159.91244	145.43496	-1832.87125	-127.75145	80.03957	-1636.17552	-3.41173	130.39749	-1701.61363	-239.26711	460.24464	-1615.45003	98.56510	480.03722	-1800.99588	-243.09080	246.52770	-1579.85071	97.44082	262.99889	
115	1.140	-1697.27044	-35.82948	985.73666	-1711.88019	-45.87034	798.64471	-1573.21981	-6.04785	941.03509	-1617.71652	14.03139	637.26882	-1621.06488	-160.25389	671.28652	-1729.84621	-23.79498	693.04499	-1728.50325	-92.72432	711.06020	-1506.60328	-28.47716	418.80775	-1537.88071	27.67527	366.29024	-1575.51850	43.59276	99.65410	-1566.02042	-26.90905	108.75304	-1523.84837	12.32094	94.22133	-1710.50139	-115.68561	378.99229	-1755.83073	-176.22129	360.69642	-1861.04511	-176.20942	101.15364	-1880.70475	-113.01581	122.00593	-1902.74509	-159.20535	146.95929	-1831.47777	-127.81445	79.50747	-1611.61245	-1.34367	123.78441	-1693.58076	-239.41436	458.05709	-1596.76764	97.01372	477.03880	-1796.62599	-242.93629	245.74232	-1556.83413	96.73876	259.36579	
116	1.150	-1685.25097	-33.32514	981.86273	-1699.15153	-44.22108	794.69823	-1560.84918	-4.82996	937.19925	-1602.53807	13.40383	633.75234	-1609.41619	-160.97381	668.10470	-1716.03031	-21.97738	688.84612	-1715.94290	-91.02047	707.09629	-1492.32128	-32.60256	415.21690	-1521.26683	25.24374	362.73326	-1551.32736	44.70715	94.58961	-1544.08199	-26.17864	103.59670	-1500.34931	12.26191	90.48454	-1700.34066	-115.82707	375.44824	-1746.94436	-175.74232	358.43784	-1859.06784	-176.07132	101.57725	-1877.49239	-112.68709	122.81659	-1899.17209	-158.50448	148.56121	-1829.80700	-127.89524	78.87613	-1589.46680	0.37165	117.43909	-1684.84363	-239.44940	455.54388	-1578.65268	95.39731	473.69651	-1791.49363	-242.68742	244.80820	-1535.49734	95.82752	255.50932	
